<mxfile host="Electron" modified="2023-11-05T14:04:38.406Z" agent="Mozilla/5.0 (Windows NT 10.0; Win64; x64) AppleWebKit/537.36 (KHTML, like Gecko) draw.io/22.0.3 Chrome/114.0.5735.289 Electron/25.8.4 Safari/537.36" etag="Mm4HqvHiGShc82V4N9mk" version="22.0.3" type="device">
  <diagram name="Sayfa -1" id="eFwFcrLJ0KyjfITtrYX_">
    <mxGraphModel dx="1036" dy="606" grid="1" gridSize="10" guides="1" tooltips="1" connect="1" arrows="1" fold="1" page="1" pageScale="1" pageWidth="827" pageHeight="1169" math="0" shadow="0">
      <root>
        <mxCell id="0" />
        <mxCell id="1" parent="0" />
        <mxCell id="gDNZB10zY3lndctemqrN-2" style="edgeStyle=orthogonalEdgeStyle;rounded=0;orthogonalLoop=1;jettySize=auto;html=1;" edge="1" parent="1" source="gDNZB10zY3lndctemqrN-1" target="gDNZB10zY3lndctemqrN-3">
          <mxGeometry relative="1" as="geometry">
            <mxPoint x="390" y="160" as="targetPoint" />
          </mxGeometry>
        </mxCell>
        <mxCell id="gDNZB10zY3lndctemqrN-1" value="start" style="ellipse;whiteSpace=wrap;html=1;" vertex="1" parent="1">
          <mxGeometry x="330" width="120" height="80" as="geometry" />
        </mxCell>
        <mxCell id="gDNZB10zY3lndctemqrN-4" style="edgeStyle=orthogonalEdgeStyle;rounded=0;orthogonalLoop=1;jettySize=auto;html=1;" edge="1" parent="1" source="gDNZB10zY3lndctemqrN-3" target="gDNZB10zY3lndctemqrN-5">
          <mxGeometry relative="1" as="geometry">
            <mxPoint x="390" y="280" as="targetPoint" />
          </mxGeometry>
        </mxCell>
        <mxCell id="gDNZB10zY3lndctemqrN-3" value="toplam=T&lt;br&gt;sayac==S&lt;br&gt;T==0&lt;br&gt;S==1000" style="rounded=0;whiteSpace=wrap;html=1;" vertex="1" parent="1">
          <mxGeometry x="330" y="130" width="120" height="60" as="geometry" />
        </mxCell>
        <mxCell id="gDNZB10zY3lndctemqrN-6" style="edgeStyle=orthogonalEdgeStyle;rounded=0;orthogonalLoop=1;jettySize=auto;html=1;" edge="1" parent="1" source="gDNZB10zY3lndctemqrN-5" target="gDNZB10zY3lndctemqrN-7">
          <mxGeometry relative="1" as="geometry">
            <mxPoint x="560" y="280" as="targetPoint" />
          </mxGeometry>
        </mxCell>
        <mxCell id="gDNZB10zY3lndctemqrN-13" style="edgeStyle=orthogonalEdgeStyle;rounded=0;orthogonalLoop=1;jettySize=auto;html=1;" edge="1" parent="1" source="gDNZB10zY3lndctemqrN-5" target="gDNZB10zY3lndctemqrN-14">
          <mxGeometry relative="1" as="geometry">
            <mxPoint x="390" y="580" as="targetPoint" />
          </mxGeometry>
        </mxCell>
        <mxCell id="gDNZB10zY3lndctemqrN-5" value="S&amp;lt;2001" style="rhombus;whiteSpace=wrap;html=1;" vertex="1" parent="1">
          <mxGeometry x="350" y="240" width="80" height="80" as="geometry" />
        </mxCell>
        <mxCell id="gDNZB10zY3lndctemqrN-8" style="edgeStyle=orthogonalEdgeStyle;rounded=0;orthogonalLoop=1;jettySize=auto;html=1;" edge="1" parent="1" source="gDNZB10zY3lndctemqrN-7" target="gDNZB10zY3lndctemqrN-9">
          <mxGeometry relative="1" as="geometry">
            <mxPoint x="560" y="400" as="targetPoint" />
          </mxGeometry>
        </mxCell>
        <mxCell id="gDNZB10zY3lndctemqrN-7" value="T=T+S" style="rounded=0;whiteSpace=wrap;html=1;" vertex="1" parent="1">
          <mxGeometry x="500" y="250" width="120" height="60" as="geometry" />
        </mxCell>
        <mxCell id="gDNZB10zY3lndctemqrN-10" style="edgeStyle=orthogonalEdgeStyle;rounded=0;orthogonalLoop=1;jettySize=auto;html=1;" edge="1" parent="1" source="gDNZB10zY3lndctemqrN-9" target="gDNZB10zY3lndctemqrN-11">
          <mxGeometry relative="1" as="geometry">
            <mxPoint x="560" y="520" as="targetPoint" />
          </mxGeometry>
        </mxCell>
        <mxCell id="gDNZB10zY3lndctemqrN-9" value="S" style="shape=document;whiteSpace=wrap;html=1;boundedLbl=1;" vertex="1" parent="1">
          <mxGeometry x="500" y="360" width="120" height="80" as="geometry" />
        </mxCell>
        <mxCell id="gDNZB10zY3lndctemqrN-11" value="S++" style="rounded=0;whiteSpace=wrap;html=1;" vertex="1" parent="1">
          <mxGeometry x="500" y="490" width="120" height="60" as="geometry" />
        </mxCell>
        <mxCell id="gDNZB10zY3lndctemqrN-12" style="edgeStyle=orthogonalEdgeStyle;rounded=0;orthogonalLoop=1;jettySize=auto;html=1;entryX=0.915;entryY=0.638;entryDx=0;entryDy=0;entryPerimeter=0;" edge="1" parent="1" source="gDNZB10zY3lndctemqrN-11" target="gDNZB10zY3lndctemqrN-5">
          <mxGeometry relative="1" as="geometry" />
        </mxCell>
        <mxCell id="gDNZB10zY3lndctemqrN-15" style="edgeStyle=orthogonalEdgeStyle;rounded=0;orthogonalLoop=1;jettySize=auto;html=1;" edge="1" parent="1" source="gDNZB10zY3lndctemqrN-14" target="gDNZB10zY3lndctemqrN-16">
          <mxGeometry relative="1" as="geometry">
            <mxPoint x="390" y="730" as="targetPoint" />
          </mxGeometry>
        </mxCell>
        <mxCell id="gDNZB10zY3lndctemqrN-14" value="T" style="shape=document;whiteSpace=wrap;html=1;boundedLbl=1;" vertex="1" parent="1">
          <mxGeometry x="330" y="540" width="120" height="80" as="geometry" />
        </mxCell>
        <mxCell id="gDNZB10zY3lndctemqrN-16" value="" style="ellipse;whiteSpace=wrap;html=1;" vertex="1" parent="1">
          <mxGeometry x="330" y="690" width="120" height="80" as="geometry" />
        </mxCell>
      </root>
    </mxGraphModel>
  </diagram>
</mxfile>
